<svg width="200" height="200" xmlns="http://www.w3.org/2000/svg">

    <rect width="100%" height="100%" rx="5" ry="5" fill="lightgrey"/>

    <!-- <path d="M10 10 C20 20, 40 20, 50 10" stroke="black" fill="transparent"/>

    <path d="M70 10 C 70 20, 120 20, 120 10" stroke="black" fill="transparent"/>
    <path d="M130 10 C 120 20, 180 20, 170 10" stroke="black" fill="transparent"/>
    <path d="M10 60 C 20 80, 40 80, 50 60" stroke="black" fill="transparent"/>
    <path d="M70 60 C 70 80, 110 80, 110 60" stroke="black" fill="transparent"/>
    <path d="M130 60 C 120 80, 180 80, 170 60" stroke="black" fill="transparent"/>
    <path d="M10 110 C 20 140, 40 140, 50 110" stroke="black" fill="transparent"/>
    <path d="M70 110 C 70 140, 110 140, 110 110" stroke="black" fill="transparent"/>
    <path d="M130 110 C 120 140, 180 140, 170 110" stroke="black" fill="transparent"/> -->


    <!-- C 命令用于创建三次贝塞尔曲线，S 命令 将两个三次贝塞尔曲线连起来 -->
    <path d="M10 80 C 40 10, 65 10, 95 80 S 150 150, 180 80" stroke="red" fill="transparent"/>

    <!-- Q 命令创建二次贝塞尔曲线，T命令 将两个二次贝塞尔曲线连起来 -->
    <path d="M10 80 Q 52.5 10, 95 80 T 180 80" stroke="black" fill="transparent"/>

</svg>